%TF.GenerationSoftware,KiCad,Pcbnew,9.0.6*%
%TF.CreationDate,2026-02-10T02:41:54-08:00*%
%TF.ProjectId,TECHIN514_final,54454348-494e-4353-9134-5f66696e616c,rev?*%
%TF.SameCoordinates,Original*%
%TF.FileFunction,Copper,L1,Top*%
%TF.FilePolarity,Positive*%
%FSLAX46Y46*%
G04 Gerber Fmt 4.6, Leading zero omitted, Abs format (unit mm)*
G04 Created by KiCad (PCBNEW 9.0.6) date 2026-02-10 02:41:54*
%MOMM*%
%LPD*%
G01*
G04 APERTURE LIST*
G04 Aperture macros list*
%AMRoundRect*
0 Rectangle with rounded corners*
0 $1 Rounding radius*
0 $2 $3 $4 $5 $6 $7 $8 $9 X,Y pos of 4 corners*
0 Add a 4 corners polygon primitive as box body*
4,1,4,$2,$3,$4,$5,$6,$7,$8,$9,$2,$3,0*
0 Add four circle primitives for the rounded corners*
1,1,$1+$1,$2,$3*
1,1,$1+$1,$4,$5*
1,1,$1+$1,$6,$7*
1,1,$1+$1,$8,$9*
0 Add four rect primitives between the rounded corners*
20,1,$1+$1,$2,$3,$4,$5,0*
20,1,$1+$1,$4,$5,$6,$7,0*
20,1,$1+$1,$6,$7,$8,$9,0*
20,1,$1+$1,$8,$9,$2,$3,0*%
G04 Aperture macros list end*
%TA.AperFunction,ComponentPad*%
%ADD10R,0.850000X0.850000*%
%TD*%
%TA.AperFunction,ComponentPad*%
%ADD11C,0.850000*%
%TD*%
%TA.AperFunction,SMDPad,CuDef*%
%ADD12RoundRect,0.237500X-0.237500X0.250000X-0.237500X-0.250000X0.237500X-0.250000X0.237500X0.250000X0*%
%TD*%
%TA.AperFunction,ComponentPad*%
%ADD13O,3.556000X1.778000*%
%TD*%
%TA.AperFunction,ComponentPad*%
%ADD14C,1.905000*%
%TD*%
%TA.AperFunction,ComponentPad*%
%ADD15C,1.700000*%
%TD*%
%TA.AperFunction,SMDPad,CuDef*%
%ADD16RoundRect,0.250000X-0.450000X0.325000X-0.450000X-0.325000X0.450000X-0.325000X0.450000X0.325000X0*%
%TD*%
%TA.AperFunction,Conductor*%
%ADD17C,0.200000*%
%TD*%
G04 APERTURE END LIST*
D10*
%TO.P,J2,1,Pin_1*%
%TO.N,Net-(J2-Pin_1)*%
X101500000Y-103500000D03*
D11*
%TO.P,J2,2,Pin_2*%
%TO.N,Net-(J1-Pin_1)*%
X101500000Y-104500000D03*
%TD*%
D12*
%TO.P,R1,1*%
%TO.N,Net-(D1-A)*%
X112500000Y-99000000D03*
%TO.P,R1,2*%
%TO.N,Net-(U1-GPIO43_TX_D6)*%
X112500000Y-100825000D03*
%TD*%
D13*
%TO.P,U1,1,GPIO1_A0_D0*%
%TO.N,Net-(U1-GPIO1_A0_D0)*%
X91578000Y-83100000D03*
%TO.P,U1,2,GPIO2_A1_D1*%
%TO.N,Net-(U1-GPIO2_A1_D1)*%
X91578000Y-85640000D03*
%TO.P,U1,3,GPIO3_A2_D2*%
%TO.N,Net-(U1-GPIO3_A2_D2)*%
X91578000Y-88180000D03*
%TO.P,U1,4,GPIO4_A3_D3*%
%TO.N,Net-(U1-GPIO4_A3_D3)*%
X91578000Y-90720000D03*
%TO.P,U1,5,GPIO4_A3_D3_SDA*%
%TO.N,unconnected-(U1-GPIO4_A3_D3_SDA-Pad5)*%
X91578000Y-93260000D03*
%TO.P,U1,6,GPIO6_A5_D5_SCL*%
%TO.N,unconnected-(U1-GPIO6_A5_D5_SCL-Pad6)*%
X91578000Y-95800000D03*
%TO.P,U1,7,GPIO43_TX_D6*%
%TO.N,Net-(U1-GPIO43_TX_D6)*%
X91578000Y-98340000D03*
%TO.P,U1,8,GPIO44_D7_RX*%
%TO.N,unconnected-(U1-GPIO44_D7_RX-Pad8)*%
X108342000Y-98340000D03*
%TO.P,U1,9,GPIO7_A8_D8_SCK*%
%TO.N,unconnected-(U1-GPIO7_A8_D8_SCK-Pad9)*%
X108342000Y-95800000D03*
%TO.P,U1,10,GPIO8_A9_D9_CIPO*%
%TO.N,unconnected-(U1-GPIO8_A9_D9_CIPO-Pad10)*%
X108342000Y-93260000D03*
%TO.P,U1,11,GPIO9_A10_D10_COPI*%
%TO.N,unconnected-(U1-GPIO9_A10_D10_COPI-Pad11)*%
X108342000Y-90720000D03*
%TO.P,U1,12,3V3*%
%TO.N,unconnected-(U1-3V3-Pad12)*%
X108342000Y-88180000D03*
%TO.P,U1,13,GND*%
%TO.N,GND*%
X108342000Y-85640000D03*
%TO.P,U1,14,5V*%
%TO.N,unconnected-(U1-5V-Pad14)*%
X108342000Y-83100000D03*
D14*
%TO.P,U1,15,+BATT*%
%TO.N,Net-(J1-Pin_2)*%
X97420000Y-108500000D03*
%TO.P,U1,16,-BATT*%
%TO.N,Net-(J2-Pin_1)*%
X102500000Y-108500000D03*
%TD*%
D10*
%TO.P,J1,1,Pin_1*%
%TO.N,Net-(J1-Pin_1)*%
X91000000Y-105500000D03*
D11*
%TO.P,J1,2,Pin_2*%
%TO.N,Net-(J1-Pin_2)*%
X90000000Y-105500000D03*
%TD*%
D15*
%TO.P,stepper_motor1,1,pin1*%
%TO.N,Net-(U1-GPIO1_A0_D0)*%
X69190000Y-77070000D03*
%TO.P,stepper_motor1,2,pin2*%
%TO.N,Net-(U1-GPIO2_A1_D1)*%
X76810000Y-77070000D03*
%TO.P,stepper_motor1,3,pin3*%
%TO.N,Net-(U1-GPIO3_A2_D2)*%
X76810000Y-99930000D03*
%TO.P,stepper_motor1,4,pin4*%
%TO.N,Net-(U1-GPIO4_A3_D3)*%
X69190000Y-99930000D03*
%TD*%
D16*
%TO.P,D1,1,K*%
%TO.N,GND*%
X112500000Y-94362500D03*
%TO.P,D1,2,A*%
%TO.N,Net-(D1-A)*%
X112500000Y-96412500D03*
%TD*%
D17*
%TO.N,Net-(J2-Pin_1)*%
X102500000Y-103875000D02*
X102125000Y-103500000D01*
X102125000Y-103500000D02*
X101500000Y-103500000D01*
X102500000Y-108500000D02*
X102500000Y-103875000D01*
%TO.N,Net-(J1-Pin_1)*%
X100500000Y-104500000D02*
X101500000Y-104500000D01*
X99500000Y-105500000D02*
X100500000Y-104500000D01*
%TO.N,Net-(D1-A)*%
X112500000Y-99000000D02*
X112500000Y-96412500D01*
%TO.N,Net-(J1-Pin_1)*%
X99500000Y-105500000D02*
X91000000Y-105500000D01*
%TO.N,Net-(J1-Pin_2)*%
X90000000Y-106101040D02*
X90000000Y-105500000D01*
X92398960Y-108500000D02*
X90000000Y-106101040D01*
X97420000Y-108500000D02*
X92398960Y-108500000D01*
%TO.N,Net-(U1-GPIO43_TX_D6)*%
X94825000Y-100825000D02*
X112500000Y-100825000D01*
X92340000Y-98340000D02*
X94825000Y-100825000D01*
%TO.N,Net-(U1-GPIO1_A0_D0)*%
X85159000Y-75919000D02*
X74581000Y-75919000D01*
X74581000Y-75919000D02*
X73430000Y-77070000D01*
X73430000Y-77070000D02*
X69190000Y-77070000D01*
X92340000Y-83100000D02*
X85159000Y-75919000D01*
%TO.N,Net-(U1-GPIO4_A3_D3)*%
X92340000Y-90720000D02*
X91468420Y-90720000D01*
X81107420Y-101081000D02*
X76333240Y-101081000D01*
X76333240Y-101081000D02*
X75182240Y-99930000D01*
X91468420Y-90720000D02*
X81107420Y-101081000D01*
X75182240Y-99930000D02*
X69190000Y-99930000D01*
%TO.N,Net-(U1-GPIO3_A2_D2)*%
X88560000Y-88180000D02*
X76810000Y-99930000D01*
X92340000Y-88180000D02*
X88560000Y-88180000D01*
%TO.N,Net-(U1-GPIO2_A1_D1)*%
X85380000Y-85640000D02*
X76810000Y-77070000D01*
X92340000Y-85640000D02*
X85380000Y-85640000D01*
%TO.N,GND*%
X112500000Y-89766086D02*
X108373914Y-85640000D01*
X108373914Y-85640000D02*
X107580000Y-85640000D01*
X112500000Y-94362500D02*
X112500000Y-89766086D01*
%TD*%
%TA.AperFunction,Conductor*%
%TO.N,GND*%
G36*
X111502107Y-70000572D02*
G01*
X111527872Y-70001452D01*
X112041685Y-70019004D01*
X112050108Y-70019581D01*
X112585077Y-70074577D01*
X112593415Y-70075723D01*
X113091239Y-70161557D01*
X113123376Y-70167098D01*
X113131665Y-70168820D01*
X113654138Y-70296143D01*
X113662252Y-70298416D01*
X114063897Y-70425893D01*
X114174826Y-70461101D01*
X114182804Y-70463936D01*
X114364632Y-70535639D01*
X114683088Y-70661221D01*
X114690834Y-70664587D01*
X115176471Y-70895546D01*
X115183963Y-70899427D01*
X115626038Y-71147993D01*
X115652718Y-71162995D01*
X115659952Y-71167394D01*
X116109624Y-71462334D01*
X116116512Y-71467195D01*
X116545026Y-71792148D01*
X116551574Y-71797476D01*
X116956906Y-72150907D01*
X116963077Y-72156671D01*
X117343328Y-72536922D01*
X117349093Y-72543094D01*
X117702521Y-72948422D01*
X117707854Y-72954977D01*
X118032800Y-73383482D01*
X118037671Y-73390383D01*
X118332605Y-73840047D01*
X118337004Y-73847281D01*
X118600565Y-74316023D01*
X118604460Y-74323541D01*
X118835408Y-74809155D01*
X118838782Y-74816921D01*
X119036063Y-75317195D01*
X119038898Y-75325173D01*
X119201577Y-75837728D01*
X119203861Y-75845881D01*
X119331178Y-76368333D01*
X119332901Y-76376623D01*
X119424272Y-76906559D01*
X119425425Y-76914947D01*
X119480417Y-77449878D01*
X119480995Y-77458325D01*
X119499428Y-77997892D01*
X119499500Y-78002126D01*
X119499500Y-102497966D01*
X119499434Y-102502018D01*
X119482549Y-103018469D01*
X119482019Y-103026555D01*
X119431639Y-103538746D01*
X119430583Y-103546781D01*
X119346851Y-104054614D01*
X119345272Y-104062562D01*
X119228550Y-104563832D01*
X119226455Y-104571661D01*
X119077242Y-105064232D01*
X119074641Y-105071906D01*
X118893573Y-105553681D01*
X118890475Y-105561170D01*
X118678318Y-106030102D01*
X118674739Y-106037372D01*
X118432414Y-106491431D01*
X118428367Y-106498452D01*
X118156895Y-106935723D01*
X118152398Y-106942464D01*
X117852952Y-107361059D01*
X117848024Y-107367493D01*
X117521861Y-107765652D01*
X117516523Y-107771749D01*
X117165079Y-108147722D01*
X117159355Y-108153459D01*
X116784073Y-108505702D01*
X116777986Y-108511051D01*
X116416943Y-108808049D01*
X116415918Y-108808884D01*
X116406177Y-108816724D01*
X116394342Y-108822837D01*
X116361964Y-108852310D01*
X116359022Y-108854679D01*
X116358766Y-108854784D01*
X116356878Y-108856366D01*
X116325151Y-108880772D01*
X116325150Y-108880773D01*
X116319160Y-108888598D01*
X116304174Y-108904918D01*
X111712886Y-113084544D01*
X111712885Y-113084544D01*
X111702992Y-113093548D01*
X111692686Y-113099500D01*
X111654413Y-113137771D01*
X111652262Y-113139730D01*
X111652248Y-113139744D01*
X111613991Y-113174572D01*
X111604146Y-113184867D01*
X111352362Y-113417613D01*
X111344959Y-113423936D01*
X111034655Y-113668561D01*
X111026778Y-113674284D01*
X110698243Y-113893804D01*
X110689941Y-113898891D01*
X110345185Y-114091964D01*
X110336510Y-114096385D01*
X109977672Y-114261811D01*
X109968676Y-114265537D01*
X109597966Y-114402299D01*
X109588707Y-114405307D01*
X109208415Y-114512561D01*
X109198947Y-114514834D01*
X108811408Y-114591920D01*
X108801792Y-114593443D01*
X108409402Y-114639886D01*
X108399695Y-114640650D01*
X108002443Y-114656258D01*
X107997575Y-114656354D01*
X69539984Y-114656354D01*
X69522975Y-114655182D01*
X69173766Y-114606824D01*
X69163776Y-114605021D01*
X68799701Y-114523801D01*
X68789892Y-114521187D01*
X68433676Y-114410456D01*
X68424113Y-114407048D01*
X68078159Y-114267555D01*
X68068907Y-114263376D01*
X67735504Y-114096040D01*
X67726625Y-114091119D01*
X67420836Y-113904874D01*
X67408775Y-113896511D01*
X66444661Y-113139744D01*
X64220235Y-111393713D01*
X84149500Y-111393713D01*
X84149500Y-111606286D01*
X84182753Y-111816239D01*
X84248444Y-112018414D01*
X84344951Y-112207820D01*
X84469890Y-112379786D01*
X84620213Y-112530109D01*
X84792179Y-112655048D01*
X84792181Y-112655049D01*
X84792184Y-112655051D01*
X84981588Y-112751557D01*
X85183757Y-112817246D01*
X85393713Y-112850500D01*
X85393714Y-112850500D01*
X85606286Y-112850500D01*
X85606287Y-112850500D01*
X85816243Y-112817246D01*
X86018412Y-112751557D01*
X86207816Y-112655051D01*
X86229789Y-112639086D01*
X86379786Y-112530109D01*
X86379788Y-112530106D01*
X86379792Y-112530104D01*
X86530104Y-112379792D01*
X86530106Y-112379788D01*
X86530109Y-112379786D01*
X86655048Y-112207820D01*
X86655047Y-112207820D01*
X86655051Y-112207816D01*
X86751557Y-112018412D01*
X86817246Y-111816243D01*
X86850500Y-111606287D01*
X86850500Y-111393713D01*
X86817246Y-111183757D01*
X86751557Y-110981588D01*
X86655051Y-110792184D01*
X86655049Y-110792181D01*
X86655048Y-110792179D01*
X86530109Y-110620213D01*
X86379786Y-110469890D01*
X86207820Y-110344951D01*
X86018414Y-110248444D01*
X86018413Y-110248443D01*
X86018412Y-110248443D01*
X85816243Y-110182754D01*
X85816241Y-110182753D01*
X85816240Y-110182753D01*
X85654957Y-110157208D01*
X85606287Y-110149500D01*
X85393713Y-110149500D01*
X85345042Y-110157208D01*
X85183760Y-110182753D01*
X84981585Y-110248444D01*
X84792179Y-110344951D01*
X84620213Y-110469890D01*
X84469890Y-110620213D01*
X84344951Y-110792179D01*
X84248444Y-110981585D01*
X84182753Y-111183760D01*
X84149500Y-111393713D01*
X64220235Y-111393713D01*
X62116881Y-109742716D01*
X56827835Y-105591156D01*
X89074499Y-105591156D01*
X89110065Y-105769952D01*
X89110068Y-105769962D01*
X89179831Y-105938387D01*
X89179833Y-105938391D01*
X89281113Y-106089967D01*
X89281114Y-106089968D01*
X89281117Y-106089972D01*
X89386348Y-106195203D01*
X89392171Y-106204265D01*
X89397947Y-106208591D01*
X89407223Y-106227692D01*
X89414856Y-106239571D01*
X89416916Y-106245097D01*
X89440423Y-106332825D01*
X89461191Y-106368796D01*
X89466373Y-106377773D01*
X89466375Y-106377776D01*
X89519475Y-106469749D01*
X89519481Y-106469757D01*
X89638349Y-106588625D01*
X89638354Y-106588629D01*
X92030244Y-108980520D01*
X92030246Y-108980521D01*
X92030250Y-108980524D01*
X92164020Y-109057755D01*
X92167176Y-109059577D01*
X92319903Y-109100501D01*
X92319905Y-109100501D01*
X92485614Y-109100501D01*
X92485630Y-109100500D01*
X96019242Y-109100500D01*
X96086281Y-109120185D01*
X96129727Y-109168205D01*
X96177283Y-109261538D01*
X96311714Y-109446566D01*
X96473434Y-109608286D01*
X96658462Y-109742717D01*
X96862242Y-109846548D01*
X96862244Y-109846549D01*
X97079751Y-109917221D01*
X97079752Y-109917221D01*
X97079755Y-109917222D01*
X97305646Y-109953000D01*
X97305647Y-109953000D01*
X97534353Y-109953000D01*
X97534354Y-109953000D01*
X97760245Y-109917222D01*
X97760248Y-109917221D01*
X97760249Y-109917221D01*
X97977755Y-109846549D01*
X97977755Y-109846548D01*
X97977758Y-109846548D01*
X98181538Y-109742717D01*
X98366566Y-109608286D01*
X98528286Y-109446566D01*
X98662717Y-109261538D01*
X98766548Y-109057758D01*
X98824054Y-108880772D01*
X98837221Y-108840249D01*
X98837221Y-108840248D01*
X98837222Y-108840245D01*
X98873000Y-108614354D01*
X98873000Y-108385646D01*
X98837222Y-108159755D01*
X98837221Y-108159751D01*
X98837221Y-108159750D01*
X98766549Y-107942244D01*
X98710272Y-107831795D01*
X98662717Y-107738462D01*
X98528286Y-107553434D01*
X98366566Y-107391714D01*
X98181538Y-107257283D01*
X98088204Y-107209727D01*
X97977755Y-107153450D01*
X97760248Y-107082778D01*
X97590826Y-107055944D01*
X97534354Y-107047000D01*
X97305646Y-107047000D01*
X97230349Y-107058926D01*
X97079753Y-107082778D01*
X97079750Y-107082778D01*
X96862244Y-107153450D01*
X96658461Y-107257283D01*
X96552896Y-107333980D01*
X96473434Y-107391714D01*
X96473432Y-107391716D01*
X96473431Y-107391716D01*
X96311716Y-107553431D01*
X96311716Y-107553432D01*
X96311714Y-107553434D01*
X96253980Y-107632896D01*
X96177283Y-107738461D01*
X96129727Y-107831795D01*
X96081752Y-107882591D01*
X96019242Y-107899500D01*
X92699058Y-107899500D01*
X92632019Y-107879815D01*
X92611377Y-107863181D01*
X92005479Y-107257283D01*
X91385374Y-106637179D01*
X91351890Y-106575857D01*
X91356874Y-106506165D01*
X91398746Y-106450232D01*
X91464210Y-106425815D01*
X91472498Y-106425518D01*
X91472857Y-106425499D01*
X91472872Y-106425499D01*
X91532483Y-106419091D01*
X91667331Y-106368796D01*
X91782546Y-106282546D01*
X91868796Y-106167331D01*
X91868798Y-106167323D01*
X91870027Y-106165076D01*
X91871849Y-106163253D01*
X91874112Y-106160231D01*
X91874546Y-106160556D01*
X91919431Y-106115669D01*
X91978861Y-106100500D01*
X99413331Y-106100500D01*
X99413347Y-106100501D01*
X99420943Y-106100501D01*
X99579054Y-106100501D01*
X99579057Y-106100501D01*
X99731785Y-106059577D01*
X99796899Y-106021983D01*
X99868716Y-105980520D01*
X99980520Y-105868716D01*
X99980520Y-105868714D01*
X99990724Y-105858511D01*
X99990727Y-105858506D01*
X100682510Y-105166725D01*
X100743832Y-105133241D01*
X100813524Y-105138225D01*
X100857872Y-105166727D01*
X100910024Y-105218880D01*
X100910032Y-105218886D01*
X101061608Y-105320166D01*
X101061612Y-105320168D01*
X101230037Y-105389931D01*
X101230042Y-105389933D01*
X101230046Y-105389933D01*
X101230047Y-105389934D01*
X101408843Y-105425500D01*
X101408846Y-105425500D01*
X101591156Y-105425500D01*
X101751308Y-105393643D01*
X101820900Y-105399870D01*
X101876077Y-105442733D01*
X101899322Y-105508622D01*
X101899500Y-105515260D01*
X101899500Y-107099242D01*
X101879815Y-107166281D01*
X101831795Y-107209727D01*
X101738461Y-107257283D01*
X101632896Y-107333980D01*
X101553434Y-107391714D01*
X101553432Y-107391716D01*
X101553431Y-107391716D01*
X101391716Y-107553431D01*
X101391716Y-107553432D01*
X101391714Y-107553434D01*
X101333980Y-107632896D01*
X101257283Y-107738461D01*
X101153450Y-107942244D01*
X101082778Y-108159750D01*
X101082778Y-108159753D01*
X101047000Y-108385646D01*
X101047000Y-108614353D01*
X101082778Y-108840246D01*
X101082778Y-108840249D01*
X101153450Y-109057755D01*
X101257283Y-109261538D01*
X101391714Y-109446566D01*
X101553434Y-109608286D01*
X101738462Y-109742717D01*
X101942242Y-109846548D01*
X101942244Y-109846549D01*
X102159751Y-109917221D01*
X102159752Y-109917221D01*
X102159755Y-109917222D01*
X102385646Y-109953000D01*
X102385647Y-109953000D01*
X102614353Y-109953000D01*
X102614354Y-109953000D01*
X102840245Y-109917222D01*
X102840248Y-109917221D01*
X102840249Y-109917221D01*
X103057755Y-109846549D01*
X103057755Y-109846548D01*
X103057758Y-109846548D01*
X103261538Y-109742717D01*
X103446566Y-109608286D01*
X103608286Y-109446566D01*
X103742717Y-109261538D01*
X103846548Y-109057758D01*
X103904054Y-108880772D01*
X103917221Y-108840249D01*
X103917221Y-108840248D01*
X103917222Y-108840245D01*
X103953000Y-108614354D01*
X103953000Y-108385646D01*
X103917222Y-108159755D01*
X103917221Y-108159751D01*
X103917221Y-108159750D01*
X103846549Y-107942244D01*
X103790272Y-107831795D01*
X103742717Y-107738462D01*
X103608286Y-107553434D01*
X103446566Y-107391714D01*
X103261538Y-107257283D01*
X103168205Y-107209727D01*
X103117409Y-107161752D01*
X103100500Y-107099242D01*
X103100500Y-103795945D01*
X103100500Y-103795943D01*
X103079860Y-103718913D01*
X103059577Y-103643215D01*
X103001595Y-103542788D01*
X102980520Y-103506284D01*
X102868716Y-103394480D01*
X102868713Y-103394478D01*
X102612590Y-103138355D01*
X102612588Y-103138352D01*
X102493715Y-103019479D01*
X102461914Y-103001119D01*
X102413699Y-102950551D01*
X102407733Y-102937065D01*
X102368797Y-102832671D01*
X102368793Y-102832664D01*
X102282547Y-102717455D01*
X102282544Y-102717452D01*
X102167335Y-102631206D01*
X102167328Y-102631202D01*
X102032482Y-102580908D01*
X102032483Y-102580908D01*
X101972883Y-102574501D01*
X101972881Y-102574500D01*
X101972873Y-102574500D01*
X101972864Y-102574500D01*
X101027129Y-102574500D01*
X101027123Y-102574501D01*
X100967516Y-102580908D01*
X100832671Y-102631202D01*
X100832664Y-102631206D01*
X100717455Y-102717452D01*
X100717452Y-102717455D01*
X100631206Y-102832664D01*
X100631202Y-102832671D01*
X100580908Y-102967517D01*
X100577296Y-103001119D01*
X100574500Y-103027127D01*
X100574500Y-103450500D01*
X100574501Y-103775499D01*
X100554817Y-103842538D01*
X100502013Y-103888293D01*
X100450501Y-103899499D01*
X100420943Y-103899499D01*
X100344579Y-103919961D01*
X100268214Y-103940423D01*
X100268209Y-103940426D01*
X100131290Y-104019475D01*
X100131282Y-104019481D01*
X99287584Y-104863181D01*
X99226261Y-104896666D01*
X99199903Y-104899500D01*
X91978861Y-104899500D01*
X91911822Y-104879815D01*
X91874362Y-104839581D01*
X91874112Y-104839769D01*
X91872364Y-104837434D01*
X91870027Y-104834924D01*
X91868797Y-104832673D01*
X91868796Y-104832669D01*
X91854513Y-104813590D01*
X91782547Y-104717455D01*
X91782544Y-104717452D01*
X91667335Y-104631206D01*
X91667328Y-104631202D01*
X91532482Y-104580908D01*
X91532483Y-104580908D01*
X91472883Y-104574501D01*
X91472881Y-104574500D01*
X91472873Y-104574500D01*
X91472864Y-104574500D01*
X90527129Y-104574500D01*
X90527123Y-104574501D01*
X90467516Y-104580908D01*
X90372233Y-104616447D01*
X90302541Y-104621431D01*
X90281448Y-104614826D01*
X90269962Y-104610068D01*
X90269952Y-104610065D01*
X90091156Y-104574500D01*
X90091154Y-104574500D01*
X89908846Y-104574500D01*
X89908844Y-104574500D01*
X89730047Y-104610065D01*
X89730037Y-104610068D01*
X89561612Y-104679831D01*
X89561608Y-104679833D01*
X89410032Y-104781113D01*
X89410024Y-104781119D01*
X89281119Y-104910024D01*
X89281113Y-104910032D01*
X89179833Y-105061608D01*
X89179831Y-105061612D01*
X89110068Y-105230037D01*
X89110065Y-105230047D01*
X89074500Y-105408843D01*
X89074500Y-105408846D01*
X89074500Y-105591154D01*
X89074500Y-105591156D01*
X89074499Y-105591156D01*
X56827835Y-105591156D01*
X56712078Y-105500294D01*
X54848652Y-104037625D01*
X54833626Y-104023676D01*
X54514216Y-103673708D01*
X54509241Y-103667908D01*
X54190673Y-103272460D01*
X54186065Y-103266364D01*
X54016530Y-103027127D01*
X53892459Y-102852045D01*
X53888252Y-102845703D01*
X53620715Y-102414068D01*
X53616910Y-102407485D01*
X53376472Y-101960196D01*
X53373063Y-101953357D01*
X53308421Y-101813000D01*
X53160632Y-101492106D01*
X53157666Y-101485106D01*
X52974054Y-101011653D01*
X52971514Y-101004455D01*
X52892408Y-100756069D01*
X52817414Y-100520592D01*
X52815321Y-100513243D01*
X52691324Y-100020831D01*
X52689687Y-100013367D01*
X52679862Y-99960879D01*
X52596251Y-99514225D01*
X52595080Y-99506688D01*
X52594453Y-99501635D01*
X52532568Y-99002737D01*
X52531863Y-98995138D01*
X52525971Y-98899890D01*
X52500737Y-98491942D01*
X52500500Y-98484286D01*
X52500500Y-88362378D01*
X60549500Y-88362378D01*
X60549500Y-88637621D01*
X60580315Y-88911108D01*
X60580317Y-88911124D01*
X60641561Y-89179453D01*
X60641565Y-89179465D01*
X60732467Y-89439246D01*
X60851884Y-89687218D01*
X60851886Y-89687221D01*
X60998319Y-89920268D01*
X61169925Y-90135455D01*
X61364545Y-90330075D01*
X61579732Y-90501681D01*
X61812779Y-90648114D01*
X62060757Y-90767534D01*
X62237434Y-90829356D01*
X62320534Y-90858434D01*
X62320546Y-90858438D01*
X62588879Y-90919683D01*
X62862378Y-90950499D01*
X62862379Y-90950500D01*
X62862383Y-90950500D01*
X63137621Y-90950500D01*
X63137621Y-90950499D01*
X63411121Y-90919683D01*
X63679454Y-90858438D01*
X63939243Y-90767534D01*
X64187221Y-90648114D01*
X64420268Y-90501681D01*
X64635455Y-90330075D01*
X64830075Y-90135455D01*
X65001681Y-89920268D01*
X65148114Y-89687221D01*
X65267534Y-89439243D01*
X65358438Y-89179454D01*
X65419683Y-88911121D01*
X65450500Y-88637617D01*
X65450500Y-88362383D01*
X65419683Y-88088879D01*
X65358438Y-87820546D01*
X65267534Y-87560757D01*
X65148114Y-87312779D01*
X65001681Y-87079732D01*
X64830075Y-86864545D01*
X64635455Y-86669925D01*
X64420268Y-86498319D01*
X64187221Y-86351886D01*
X64187218Y-86351884D01*
X63939246Y-86232467D01*
X63679465Y-86141565D01*
X63679453Y-86141561D01*
X63411124Y-86080317D01*
X63411108Y-86080315D01*
X63137621Y-86049500D01*
X63137617Y-86049500D01*
X62862383Y-86049500D01*
X62862379Y-86049500D01*
X62588891Y-86080315D01*
X62588875Y-86080317D01*
X62320546Y-86141561D01*
X62320534Y-86141565D01*
X62060753Y-86232467D01*
X61812781Y-86351884D01*
X61579733Y-86498318D01*
X61364545Y-86669924D01*
X61169924Y-86864545D01*
X60998318Y-87079733D01*
X60851884Y-87312781D01*
X60732467Y-87560753D01*
X60641565Y-87820534D01*
X60641561Y-87820546D01*
X60580317Y-88088875D01*
X60580315Y-88088891D01*
X60549500Y-88362378D01*
X52500500Y-88362378D01*
X52500500Y-77002214D01*
X52500579Y-76997788D01*
X52501796Y-76963713D01*
X67839500Y-76963713D01*
X67839500Y-77176286D01*
X67872753Y-77386239D01*
X67872753Y-77386241D01*
X67872754Y-77386243D01*
X67927431Y-77554522D01*
X67938444Y-77588414D01*
X68034951Y-77777820D01*
X68159890Y-77949786D01*
X68310213Y-78100109D01*
X68482179Y-78225048D01*
X68482181Y-78225049D01*
X68482184Y-78225051D01*
X68671588Y-78321557D01*
X68873757Y-78387246D01*
X69083713Y-78420500D01*
X69083714Y-78420500D01*
X69296286Y-78420500D01*
X69296287Y-78420500D01*
X69506243Y-78387246D01*
X69708412Y-78321557D01*
X69897816Y-78225051D01*
X69919789Y-78209086D01*
X70069786Y-78100109D01*
X70069788Y-78100106D01*
X70069792Y-78100104D01*
X70220104Y-77949792D01*
X70220106Y-77949788D01*
X70220109Y-77949786D01*
X70278661Y-77869193D01*
X70345051Y-77777816D01*
X70345349Y-77777230D01*
X70365235Y-77738205D01*
X70413209Y-77687409D01*
X70475719Y-77670500D01*
X73343331Y-77670500D01*
X73343347Y-77670501D01*
X73350943Y-77670501D01*
X73509054Y-77670501D01*
X73509057Y-77670501D01*
X73661785Y-77629577D01*
X73713879Y-77599500D01*
X73798716Y-77550520D01*
X73910520Y-77438716D01*
X73910520Y-77438714D01*
X73920724Y-77428511D01*
X73920727Y-77428506D01*
X74793416Y-76555819D01*
X74854739Y-76522334D01*
X74881097Y-76519500D01*
X75398198Y-76519500D01*
X75465237Y-76539185D01*
X75510992Y-76591989D01*
X75520936Y-76661147D01*
X75516129Y-76681818D01*
X75492753Y-76753760D01*
X75459500Y-76963713D01*
X75459500Y-77176286D01*
X75492753Y-77386239D01*
X75492753Y-77386241D01*
X75492754Y-77386243D01*
X75547431Y-77554522D01*
X75558444Y-77588414D01*
X75654951Y-77777820D01*
X75779890Y-77949786D01*
X75930213Y-78100109D01*
X76102179Y-78225048D01*
X76102181Y-78225049D01*
X76102184Y-78225051D01*
X76291588Y-78321557D01*
X76493757Y-78387246D01*
X76703713Y-78420500D01*
X76703714Y-78420500D01*
X76916286Y-78420500D01*
X76916287Y-78420500D01*
X77126243Y-78387246D01*
X77168523Y-78373507D01*
X77238362Y-78371511D01*
X77294522Y-78403757D01*
X84895139Y-86004374D01*
X84895149Y-86004385D01*
X84899479Y-86008715D01*
X84899480Y-86008716D01*
X85011284Y-86120520D01*
X85058882Y-86148000D01*
X85098095Y-86170639D01*
X85098097Y-86170641D01*
X85148213Y-86199576D01*
X85148215Y-86199577D01*
X85300942Y-86240500D01*
X85300943Y-86240500D01*
X89359510Y-86240500D01*
X89426549Y-86260185D01*
X89469994Y-86308204D01*
X89500461Y-86367998D01*
X89500595Y-86368260D01*
X89629142Y-86545193D01*
X89783806Y-86699857D01*
X89934969Y-86809682D01*
X89977635Y-86865011D01*
X89983614Y-86934625D01*
X89951009Y-86996420D01*
X89934969Y-87010318D01*
X89783806Y-87120142D01*
X89629142Y-87274806D01*
X89500595Y-87451739D01*
X89469995Y-87511795D01*
X89422020Y-87562591D01*
X89359510Y-87579500D01*
X88480940Y-87579500D01*
X88440019Y-87590464D01*
X88440019Y-87590465D01*
X88402751Y-87600451D01*
X88328214Y-87620423D01*
X88328209Y-87620426D01*
X88191290Y-87699475D01*
X88191282Y-87699481D01*
X88079478Y-87811286D01*
X77294522Y-98596241D01*
X77233199Y-98629726D01*
X77168523Y-98626491D01*
X77126245Y-98612754D01*
X76986272Y-98590584D01*
X76916287Y-98579500D01*
X76703713Y-98579500D01*
X76655042Y-98587208D01*
X76493760Y-98612753D01*
X76291585Y-98678444D01*
X76102179Y-98774951D01*
X75930213Y-98899890D01*
X75779890Y-99050213D01*
X75654949Y-99222182D01*
X75601143Y-99327781D01*
X75553168Y-99378576D01*
X75485347Y-99395371D01*
X75428658Y-99378872D01*
X75414025Y-99370423D01*
X75261297Y-99329499D01*
X75103183Y-99329499D01*
X75095587Y-99329499D01*
X75095571Y-99329500D01*
X70475719Y-99329500D01*
X70408680Y-99309815D01*
X70365235Y-99261795D01*
X70345052Y-99222185D01*
X70345051Y-99222184D01*
X70220109Y-99050213D01*
X70069786Y-98899890D01*
X69897820Y-98774951D01*
X69708414Y-98678444D01*
X69708413Y-98678443D01*
X69708412Y-98678443D01*
X69506243Y-98612754D01*
X69506241Y-98612753D01*
X69506240Y-98612753D01*
X69344957Y-98587208D01*
X69296287Y-98579500D01*
X69083713Y-98579500D01*
X69035042Y-98587208D01*
X68873760Y-98612753D01*
X68671585Y-98678444D01*
X68482179Y-98774951D01*
X68310213Y-98899890D01*
X68159890Y-99050213D01*
X68034951Y-99222179D01*
X67938444Y-99411585D01*
X67872753Y-99613760D01*
X67839500Y-99823713D01*
X67839500Y-100036286D01*
X67868525Y-100219546D01*
X67872754Y-100246243D01*
X67937068Y-100444181D01*
X67938444Y-100448414D01*
X68034951Y-100637820D01*
X68159890Y-100809786D01*
X68310213Y-100960109D01*
X68482179Y-101085048D01*
X68482181Y-101085049D01*
X68482184Y-101085051D01*
X68671588Y-101181557D01*
X68873757Y-101247246D01*
X69083713Y-101280500D01*
X69083714Y-101280500D01*
X69296286Y-101280500D01*
X69296287Y-101280500D01*
X69506243Y-101247246D01*
X69708412Y-101181557D01*
X69897816Y-101085051D01*
X69998828Y-101011662D01*
X70069786Y-100960109D01*
X70069788Y-100960106D01*
X70069792Y-100960104D01*
X70220104Y-100809792D01*
X70220106Y-100809788D01*
X70220109Y-100809786D01*
X70332007Y-100655769D01*
X70345051Y-100637816D01*
X70345349Y-100637230D01*
X70365235Y-100598205D01*
X70413209Y-100547409D01*
X70475719Y-100530500D01*
X72173666Y-100530500D01*
X72240705Y-100550185D01*
X72286460Y-100602989D01*
X72296404Y-100672147D01*
X72267379Y-100735703D01*
X72243359Y-100756069D01*
X72243714Y-100756557D01*
X72055061Y-100893622D01*
X71893622Y-101055061D01*
X71759421Y-101239771D01*
X71655770Y-101443196D01*
X71585215Y-101660339D01*
X71549500Y-101885837D01*
X71549500Y-102114162D01*
X71585215Y-102339660D01*
X71655770Y-102556803D01*
X71737627Y-102717455D01*
X71759421Y-102760228D01*
X71893621Y-102944937D01*
X72055063Y-103106379D01*
X72239772Y-103240579D01*
X72302342Y-103272460D01*
X72443196Y-103344229D01*
X72443198Y-103344229D01*
X72443201Y-103344231D01*
X72559592Y-103382049D01*
X72660339Y-103414784D01*
X72885838Y-103450500D01*
X72885843Y-103450500D01*
X73114162Y-103450500D01*
X73339660Y-103414784D01*
X73556799Y-103344231D01*
X73760228Y-103240579D01*
X73944937Y-103106379D01*
X74106379Y-102944937D01*
X74240579Y-102760228D01*
X74344231Y-102556799D01*
X74414784Y-102339660D01*
X74425241Y-102273638D01*
X74450500Y-102114162D01*
X74450500Y-101885837D01*
X74414784Y-101660339D01*
X74357841Y-101485088D01*
X74344231Y-101443201D01*
X74344229Y-101443198D01*
X74344229Y-101443196D01*
X74240578Y-101239771D01*
X74230030Y-101225253D01*
X74106379Y-101055063D01*
X73944937Y-100893621D01*
X73760228Y-100759421D01*
X73760227Y-100759420D01*
X73756286Y-100756557D01*
X73757149Y-100755368D01*
X73714671Y-100708419D01*
X73703246Y-100639490D01*
X73730901Y-100575326D01*
X73788855Y-100536300D01*
X73826334Y-100530500D01*
X74882143Y-100530500D01*
X74949182Y-100550185D01*
X74969824Y-100566819D01*
X75848379Y-101445374D01*
X75848389Y-101445385D01*
X75852719Y-101449715D01*
X75852720Y-101449716D01*
X75964524Y-101561520D01*
X76004702Y-101584716D01*
X76051335Y-101611639D01*
X76051337Y-101611641D01*
X76089391Y-101633611D01*
X76101455Y-101640577D01*
X76254183Y-101681501D01*
X76254186Y-101681501D01*
X76419894Y-101681501D01*
X76419910Y-101681500D01*
X81020751Y-101681500D01*
X81020767Y-101681501D01*
X81028363Y-101681501D01*
X81186474Y-101681501D01*
X81186477Y-101681501D01*
X81339205Y-101640577D01*
X81389324Y-101611639D01*
X81476136Y-101561520D01*
X81587940Y-101449716D01*
X81587940Y-101449714D01*
X81598148Y-101439507D01*
X81598149Y-101439504D01*
X89227615Y-93810039D01*
X89288936Y-93776556D01*
X89358628Y-93781540D01*
X89414561Y-93823412D01*
X89425778Y-93841425D01*
X89469925Y-93928069D01*
X89500595Y-93988260D01*
X89629142Y-94165193D01*
X89783806Y-94319857D01*
X89934969Y-94429682D01*
X89977635Y-94485011D01*
X89983614Y-94554625D01*
X89951009Y-94616420D01*
X89934969Y-94630318D01*
X89783806Y-94740142D01*
X89629142Y-94894806D01*
X89500595Y-95071739D01*
X89401298Y-95266616D01*
X89401297Y-95266619D01*
X89333714Y-95474623D01*
X89299500Y-95690638D01*
X89299500Y-95909361D01*
X89333714Y-96125376D01*
X89401297Y-96333380D01*
X89401298Y-96333383D01*
X89468782Y-96465825D01*
X89484944Y-96497545D01*
X89500595Y-96528260D01*
X89629142Y-96705193D01*
X89783806Y-96859857D01*
X89934969Y-96969682D01*
X89977635Y-97025011D01*
X89983614Y-97094625D01*
X89951009Y-97156420D01*
X89934969Y-97170318D01*
X89783806Y-97280142D01*
X89629142Y-97434806D01*
X89500595Y-97611739D01*
X89401298Y-97806616D01*
X89401297Y-97806619D01*
X89333714Y-98014623D01*
X89299500Y-98230638D01*
X89299500Y-98449361D01*
X89333714Y-98665376D01*
X89401297Y-98873380D01*
X89401298Y-98873383D01*
X89500595Y-99068260D01*
X89629142Y-99245193D01*
X89783806Y-99399857D01*
X89923894Y-99501635D01*
X89960743Y-99528407D01*
X90088132Y-99593315D01*
X90155616Y-99627701D01*
X90155619Y-99627702D01*
X90259621Y-99661493D01*
X90363625Y-99695286D01*
X90461892Y-99710850D01*
X90579639Y-99729500D01*
X90579644Y-99729500D01*
X92576360Y-99729500D01*
X92658025Y-99716564D01*
X92776310Y-99697830D01*
X92845601Y-99706784D01*
X92883386Y-99732621D01*
X94456284Y-101305520D01*
X94456286Y-101305521D01*
X94456290Y-101305524D01*
X94593209Y-101384573D01*
X94593216Y-101384577D01*
X94745943Y-101425501D01*
X94745945Y-101425501D01*
X94911654Y-101425501D01*
X94911670Y-101425500D01*
X111542389Y-101425500D01*
X111609428Y-101445185D01*
X111647928Y-101484404D01*
X111679660Y-101535850D01*
X111801650Y-101657840D01*
X111948484Y-101748408D01*
X112112247Y-101802674D01*
X112213323Y-101813000D01*
X112786676Y-101812999D01*
X112786684Y-101812998D01*
X112786687Y-101812998D01*
X112842030Y-101807344D01*
X112887753Y-101802674D01*
X113051516Y-101748408D01*
X113198350Y-101657840D01*
X113320340Y-101535850D01*
X113410908Y-101389016D01*
X113465174Y-101225253D01*
X113475500Y-101124177D01*
X113475499Y-100525824D01*
X113465174Y-100424747D01*
X113410908Y-100260984D01*
X113320340Y-100114150D01*
X113206371Y-100000181D01*
X113172886Y-99938858D01*
X113177870Y-99869166D01*
X113206371Y-99824819D01*
X113207477Y-99823713D01*
X113320340Y-99710850D01*
X113410908Y-99564016D01*
X113465174Y-99400253D01*
X113475500Y-99299177D01*
X113475499Y-98700824D01*
X113474362Y-98689697D01*
X113465174Y-98599747D01*
X113453955Y-98565892D01*
X113410908Y-98435984D01*
X113320340Y-98289150D01*
X113198350Y-98167160D01*
X113198349Y-98167159D01*
X113159402Y-98143136D01*
X113112678Y-98091187D01*
X113100500Y-98037598D01*
X113100500Y-97567800D01*
X113120185Y-97500761D01*
X113172989Y-97455006D01*
X113185482Y-97450099D01*
X113269334Y-97422314D01*
X113418656Y-97330212D01*
X113542712Y-97206156D01*
X113634814Y-97056834D01*
X113689999Y-96890297D01*
X113700500Y-96787509D01*
X113700499Y-96037492D01*
X113689999Y-95934703D01*
X113634814Y-95768166D01*
X113542712Y-95618844D01*
X113418656Y-95494788D01*
X113415342Y-95492743D01*
X113413546Y-95490748D01*
X113412989Y-95490307D01*
X113413064Y-95490211D01*
X113368618Y-95440797D01*
X113357397Y-95371834D01*
X113385240Y-95307752D01*
X113415348Y-95281665D01*
X113418342Y-95279818D01*
X113542315Y-95155845D01*
X113634356Y-95006624D01*
X113634358Y-95006619D01*
X113689505Y-94840197D01*
X113689506Y-94840190D01*
X113699999Y-94737486D01*
X113700000Y-94737473D01*
X113700000Y-94612500D01*
X111300001Y-94612500D01*
X111300001Y-94737486D01*
X111310494Y-94840197D01*
X111365641Y-95006619D01*
X111365643Y-95006624D01*
X111457684Y-95155845D01*
X111581655Y-95279816D01*
X111581659Y-95279819D01*
X111584656Y-95281668D01*
X111586279Y-95283472D01*
X111587323Y-95284298D01*
X111587181Y-95284476D01*
X111631381Y-95333616D01*
X111642602Y-95402579D01*
X111614759Y-95466661D01*
X111584661Y-95492741D01*
X111581349Y-95494783D01*
X111581343Y-95494788D01*
X111457289Y-95618842D01*
X111365187Y-95768163D01*
X111365186Y-95768166D01*
X111310001Y-95934703D01*
X111310001Y-95934704D01*
X111310000Y-95934704D01*
X111299500Y-96037483D01*
X111299500Y-96787501D01*
X111299501Y-96787519D01*
X111310000Y-96890296D01*
X111310001Y-96890299D01*
X111365185Y-97056831D01*
X111365187Y-97056836D01*
X111400069Y-97113388D01*
X111457288Y-97206156D01*
X111581344Y-97330212D01*
X111730666Y-97422314D01*
X111814505Y-97450095D01*
X111871948Y-97489866D01*
X111898772Y-97554382D01*
X111899500Y-97567800D01*
X111899500Y-98037598D01*
X111879815Y-98104637D01*
X111840598Y-98143136D01*
X111801650Y-98167159D01*
X111679661Y-98289148D01*
X111589093Y-98435981D01*
X111589092Y-98435984D01*
X111534826Y-98599747D01*
X111534826Y-98599748D01*
X111534825Y-98599748D01*
X111524500Y-98700815D01*
X111524500Y-99299169D01*
X111524501Y-99299187D01*
X111534825Y-99400252D01*
X111589092Y-99564015D01*
X111589093Y-99564018D01*
X111619774Y-99613760D01*
X111671629Y-99697830D01*
X111679661Y-99710851D01*
X111793629Y-99824819D01*
X111795878Y-99828938D01*
X111799822Y-99831484D01*
X111812466Y-99859316D01*
X111827114Y-99886142D01*
X111826779Y-99890822D01*
X111828721Y-99895097D01*
X111824310Y-99925347D01*
X111822130Y-99955834D01*
X111819129Y-99960879D01*
X111818640Y-99964236D01*
X111808273Y-99979134D01*
X111799499Y-99993889D01*
X111796674Y-99997135D01*
X111679660Y-100114150D01*
X111642600Y-100174232D01*
X111635940Y-100181889D01*
X111614714Y-100195470D01*
X111595980Y-100212321D01*
X111584191Y-100214999D01*
X111577087Y-100219546D01*
X111564299Y-100219520D01*
X111542389Y-100224500D01*
X95125098Y-100224500D01*
X95058059Y-100204815D01*
X95037417Y-100188181D01*
X94420712Y-99571476D01*
X93800562Y-98951327D01*
X93767078Y-98890005D01*
X93770312Y-98825334D01*
X93822286Y-98665375D01*
X93838043Y-98565892D01*
X93856500Y-98449361D01*
X93856500Y-98230638D01*
X93832639Y-98079993D01*
X93822286Y-98014625D01*
X93754701Y-97806617D01*
X93754701Y-97806616D01*
X93716724Y-97732083D01*
X93655407Y-97611743D01*
X93602327Y-97538684D01*
X93526857Y-97434806D01*
X93372199Y-97280148D01*
X93270358Y-97206157D01*
X93221028Y-97170316D01*
X93178364Y-97114989D01*
X93172385Y-97045376D01*
X93204990Y-96983580D01*
X93221023Y-96969686D01*
X93372199Y-96859852D01*
X93526852Y-96705199D01*
X93526854Y-96705195D01*
X93526857Y-96705193D01*
X93583229Y-96627601D01*
X93655407Y-96528257D01*
X93754701Y-96333383D01*
X93822286Y-96125375D01*
X93842187Y-95999727D01*
X93856500Y-95909361D01*
X93856500Y-95690638D01*
X93834114Y-95549307D01*
X93822286Y-95474625D01*
X93788493Y-95370621D01*
X93754702Y-95266619D01*
X93754701Y-95266616D01*
X93698259Y-95155845D01*
X93655407Y-95071743D01*
X93608092Y-95006619D01*
X93526857Y-94894806D01*
X93372199Y-94740148D01*
X93368517Y-94737473D01*
X93221028Y-94630316D01*
X93178364Y-94574989D01*
X93172385Y-94505376D01*
X93204990Y-94443580D01*
X93221023Y-94429686D01*
X93372199Y-94319852D01*
X93526852Y-94165199D01*
X93526854Y-94165195D01*
X93526857Y-94165193D01*
X93583229Y-94087601D01*
X93655407Y-93988257D01*
X93754701Y-93793383D01*
X93822286Y-93585375D01*
X93844490Y-93445184D01*
X93856500Y-93369361D01*
X93856500Y-93150638D01*
X93836595Y-93024971D01*
X93822286Y-92934625D01*
X93754701Y-92726617D01*
X93754701Y-92726616D01*
X93720315Y-92659132D01*
X93655407Y-92531743D01*
X93647147Y-92520374D01*
X93526857Y-92354806D01*
X93372199Y-92200148D01*
X93372191Y-92200142D01*
X93221028Y-92090316D01*
X93178364Y-92034989D01*
X93172385Y-91965376D01*
X93204990Y-91903580D01*
X93221023Y-91889686D01*
X93372199Y-91779852D01*
X93526852Y-91625199D01*
X93526854Y-91625195D01*
X93526857Y-91625193D01*
X93583229Y-91547601D01*
X93655407Y-91448257D01*
X93754701Y-91253383D01*
X93822286Y-91045375D01*
X93839912Y-90934082D01*
X93856500Y-90829361D01*
X93856500Y-90610638D01*
X93836595Y-90484971D01*
X93822286Y-90394625D01*
X93754701Y-90186617D01*
X93754701Y-90186616D01*
X93720315Y-90119132D01*
X93655407Y-89991743D01*
X93603478Y-89920268D01*
X93526857Y-89814806D01*
X93372199Y-89660148D01*
X93372191Y-89660142D01*
X93221028Y-89550316D01*
X93178364Y-89494989D01*
X93172385Y-89425376D01*
X93204990Y-89363580D01*
X93221023Y-89349686D01*
X93372199Y-89239852D01*
X93526852Y-89085199D01*
X93526854Y-89085195D01*
X93526857Y-89085193D01*
X93583229Y-89007601D01*
X93655407Y-88908257D01*
X93754701Y-88713383D01*
X93822286Y-88505375D01*
X93844934Y-88362383D01*
X93856500Y-88289361D01*
X93856500Y-88070638D01*
X93836595Y-87944971D01*
X93822286Y-87854625D01*
X93771877Y-87699480D01*
X93754702Y-87646619D01*
X93754701Y-87646616D01*
X93710951Y-87560753D01*
X93655407Y-87451743D01*
X93616210Y-87397792D01*
X93526857Y-87274806D01*
X93372199Y-87120148D01*
X93372191Y-87120142D01*
X93221028Y-87010316D01*
X93178364Y-86954989D01*
X93172385Y-86885376D01*
X93204990Y-86823580D01*
X93221023Y-86809686D01*
X93372199Y-86699852D01*
X93526852Y-86545199D01*
X93526854Y-86545195D01*
X93526857Y-86545193D01*
X93583229Y-86467601D01*
X93655407Y-86368257D01*
X93754701Y-86173383D01*
X93822286Y-85965375D01*
X93842764Y-85836081D01*
X93856500Y-85749361D01*
X93856500Y-85530638D01*
X93834224Y-85390000D01*
X93822286Y-85314625D01*
X93774197Y-85166619D01*
X93754702Y-85106619D01*
X93754701Y-85106616D01*
X93686005Y-84971795D01*
X93655407Y-84911743D01*
X93647147Y-84900374D01*
X93526857Y-84734806D01*
X93372199Y-84580148D01*
X93372191Y-84580142D01*
X93221028Y-84470316D01*
X93178364Y-84414989D01*
X93172385Y-84345376D01*
X93204990Y-84283580D01*
X93221023Y-84269686D01*
X93372199Y-84159852D01*
X93526852Y-84005199D01*
X93526854Y-84005195D01*
X93526857Y-84005193D01*
X93583229Y-83927601D01*
X93655407Y-83828257D01*
X93754701Y-83633383D01*
X93822286Y-83425375D01*
X93839912Y-83314082D01*
X93856500Y-83209361D01*
X93856500Y-82990638D01*
X106063500Y-82990638D01*
X106063500Y-83209361D01*
X106097714Y-83425376D01*
X106165297Y-83633380D01*
X106165298Y-83633383D01*
X106264595Y-83828260D01*
X106393142Y-84005193D01*
X106547802Y-84159853D01*
X106547807Y-84159857D01*
X106699394Y-84269991D01*
X106742060Y-84325320D01*
X106748039Y-84394934D01*
X106715434Y-84456729D01*
X106699394Y-84470627D01*
X106548133Y-84580524D01*
X106548128Y-84580528D01*
X106393528Y-84735128D01*
X106393524Y-84735133D01*
X106265023Y-84912001D01*
X106165762Y-85106808D01*
X106165761Y-85106811D01*
X106098201Y-85314741D01*
X106086282Y-85390000D01*
X107137749Y-85390000D01*
X107106619Y-85443919D01*
X107072000Y-85573120D01*
X107072000Y-85706880D01*
X107106619Y-85836081D01*
X107137749Y-85890000D01*
X106086282Y-85890000D01*
X106098201Y-85965258D01*
X106165761Y-86173188D01*
X106165762Y-86173191D01*
X106265023Y-86367998D01*
X106393524Y-86544866D01*
X106393528Y-86544871D01*
X106548128Y-86699471D01*
X106548133Y-86699475D01*
X106699394Y-86809372D01*
X106742060Y-86864701D01*
X106748039Y-86934315D01*
X106715434Y-86996110D01*
X106699394Y-87010008D01*
X106547807Y-87120142D01*
X106547802Y-87120146D01*
X106393142Y-87274806D01*
X106264595Y-87451739D01*
X106165298Y-87646616D01*
X106165297Y-87646619D01*
X106097714Y-87854623D01*
X106063500Y-88070638D01*
X106063500Y-88289361D01*
X106097714Y-88505376D01*
X106165297Y-88713380D01*
X106165298Y-88713383D01*
X106264595Y-88908260D01*
X106393142Y-89085193D01*
X106547806Y-89239857D01*
X106698969Y-89349682D01*
X106741635Y-89405011D01*
X106747614Y-89474625D01*
X106715009Y-89536420D01*
X106698969Y-89550318D01*
X106547806Y-89660142D01*
X106393142Y-89814806D01*
X106264595Y-89991739D01*
X106165298Y-90186616D01*
X106165297Y-90186619D01*
X106097714Y-90394623D01*
X106063500Y-90610638D01*
X106063500Y-90829361D01*
X106097714Y-91045376D01*
X106165297Y-91253380D01*
X106165298Y-91253383D01*
X106264595Y-91448260D01*
X106393142Y-91625193D01*
X106547806Y-91779857D01*
X106698969Y-91889682D01*
X106741635Y-91945011D01*
X106747614Y-92014625D01*
X106715009Y-92076420D01*
X106698969Y-92090318D01*
X106547806Y-92200142D01*
X106393142Y-92354806D01*
X106264595Y-92531739D01*
X106165298Y-92726616D01*
X106165297Y-92726619D01*
X106097714Y-92934623D01*
X106063500Y-93150638D01*
X106063500Y-93369361D01*
X106097714Y-93585376D01*
X106165297Y-93793380D01*
X106165298Y-93793383D01*
X106264595Y-93988260D01*
X106393142Y-94165193D01*
X106547806Y-94319857D01*
X106698969Y-94429682D01*
X106741635Y-94485011D01*
X106747614Y-94554625D01*
X106715009Y-94616420D01*
X106698969Y-94630318D01*
X106547806Y-94740142D01*
X106393142Y-94894806D01*
X106264595Y-95071739D01*
X106165298Y-95266616D01*
X106165297Y-95266619D01*
X106097714Y-95474623D01*
X106063500Y-95690638D01*
X106063500Y-95909361D01*
X106097714Y-96125376D01*
X106165297Y-96333380D01*
X106165298Y-96333383D01*
X106232782Y-96465825D01*
X106248944Y-96497545D01*
X106264595Y-96528260D01*
X106393142Y-96705193D01*
X106547806Y-96859857D01*
X106698969Y-96969682D01*
X106741635Y-97025011D01*
X106747614Y-97094625D01*
X106715009Y-97156420D01*
X106698969Y-97170318D01*
X106547806Y-97280142D01*
X106393142Y-97434806D01*
X106264595Y-97611739D01*
X106165298Y-97806616D01*
X106165297Y-97806619D01*
X106097714Y-98014623D01*
X106063500Y-98230638D01*
X106063500Y-98449361D01*
X106097714Y-98665376D01*
X106165297Y-98873380D01*
X106165298Y-98873383D01*
X106264595Y-99068260D01*
X106393142Y-99245193D01*
X106547806Y-99399857D01*
X106687894Y-99501635D01*
X106724743Y-99528407D01*
X106852132Y-99593315D01*
X106919616Y-99627701D01*
X106919619Y-99627702D01*
X107023621Y-99661493D01*
X107127625Y-99695286D01*
X107225892Y-99710850D01*
X107343639Y-99729500D01*
X107343644Y-99729500D01*
X109340361Y-99729500D01*
X109458101Y-99710851D01*
X109556375Y-99695286D01*
X109764383Y-99627701D01*
X109959257Y-99528407D01*
X110058601Y-99456229D01*
X110136193Y-99399857D01*
X110136195Y-99399854D01*
X110136199Y-99399852D01*
X110290852Y-99245199D01*
X110290854Y-99245195D01*
X110290857Y-99245193D01*
X110347229Y-99167601D01*
X110419407Y-99068257D01*
X110518701Y-98873383D01*
X110586286Y-98665375D01*
X110603912Y-98554082D01*
X110620500Y-98449361D01*
X110620500Y-98230638D01*
X110596639Y-98079993D01*
X110586286Y-98014625D01*
X110518701Y-97806617D01*
X110518701Y-97806616D01*
X110480724Y-97732083D01*
X110419407Y-97611743D01*
X110366327Y-97538684D01*
X110290857Y-97434806D01*
X110136199Y-97280148D01*
X110034358Y-97206157D01*
X109985028Y-97170316D01*
X109942364Y-97114989D01*
X109936385Y-97045376D01*
X109968990Y-96983580D01*
X109985023Y-96969686D01*
X110136199Y-96859852D01*
X110290852Y-96705199D01*
X110290854Y-96705195D01*
X110290857Y-96705193D01*
X110347229Y-96627601D01*
X110419407Y-96528257D01*
X110518701Y-96333383D01*
X110586286Y-96125375D01*
X110606187Y-95999727D01*
X110620500Y-95909361D01*
X110620500Y-95690638D01*
X110598114Y-95549307D01*
X110586286Y-95474625D01*
X110552493Y-95370621D01*
X110518702Y-95266619D01*
X110518701Y-95266616D01*
X110462259Y-95155845D01*
X110419407Y-95071743D01*
X110372092Y-95006619D01*
X110290857Y-94894806D01*
X110136199Y-94740148D01*
X110132517Y-94737473D01*
X109985028Y-94630316D01*
X109942364Y-94574989D01*
X109936385Y-94505376D01*
X109968990Y-94443580D01*
X109985023Y-94429686D01*
X110136199Y-94319852D01*
X110290852Y-94165199D01*
X110290854Y-94165195D01*
X110290857Y-94165193D01*
X110419404Y-93988261D01*
X110419405Y-93988260D01*
X110419407Y-93988257D01*
X110419786Y-93987513D01*
X111300000Y-93987513D01*
X111300000Y-94112500D01*
X112250000Y-94112500D01*
X112750000Y-94112500D01*
X113699999Y-94112500D01*
X113699999Y-93987528D01*
X113699998Y-93987513D01*
X113689505Y-93884802D01*
X113634358Y-93718380D01*
X113634356Y-93718375D01*
X113542315Y-93569154D01*
X113418345Y-93445184D01*
X113269124Y-93353143D01*
X113269119Y-93353141D01*
X113102697Y-93297994D01*
X113102690Y-93297993D01*
X112999986Y-93287500D01*
X112750000Y-93287500D01*
X112750000Y-94112500D01*
X112250000Y-94112500D01*
X112250000Y-93287500D01*
X112000029Y-93287500D01*
X112000012Y-93287501D01*
X111897302Y-93297994D01*
X111730880Y-93353141D01*
X111730875Y-93353143D01*
X111581654Y-93445184D01*
X111457684Y-93569154D01*
X111365643Y-93718375D01*
X111365641Y-93718380D01*
X111310494Y-93884802D01*
X111310493Y-93884809D01*
X111300000Y-93987513D01*
X110419786Y-93987513D01*
X110494221Y-93841427D01*
X110518699Y-93793388D01*
X110518702Y-93793380D01*
X110524168Y-93776556D01*
X110586286Y-93585375D01*
X110608490Y-93445184D01*
X110620500Y-93369361D01*
X110620500Y-93150638D01*
X110600595Y-93024971D01*
X110586286Y-92934625D01*
X110518701Y-92726617D01*
X110518701Y-92726616D01*
X110484315Y-92659132D01*
X110419407Y-92531743D01*
X110411147Y-92520374D01*
X110290857Y-92354806D01*
X110136199Y-92200148D01*
X110136191Y-92200142D01*
X109985028Y-92090316D01*
X109942364Y-92034989D01*
X109936385Y-91965376D01*
X109968990Y-91903580D01*
X109985023Y-91889686D01*
X110136199Y-91779852D01*
X110290852Y-91625199D01*
X110290854Y-91625195D01*
X110290857Y-91625193D01*
X110347229Y-91547601D01*
X110419407Y-91448257D01*
X110518701Y-91253383D01*
X110586286Y-91045375D01*
X110603912Y-90934082D01*
X110620500Y-90829361D01*
X110620500Y-90610638D01*
X110600595Y-90484971D01*
X110586286Y-90394625D01*
X110518701Y-90186617D01*
X110518701Y-90186616D01*
X110484315Y-90119132D01*
X110419407Y-89991743D01*
X110367478Y-89920268D01*
X110290857Y-89814806D01*
X110136199Y-89660148D01*
X110136191Y-89660142D01*
X109985028Y-89550316D01*
X109942364Y-89494989D01*
X109936385Y-89425376D01*
X109968990Y-89363580D01*
X109985023Y-89349686D01*
X110136199Y-89239852D01*
X110290852Y-89085199D01*
X110290854Y-89085195D01*
X110290857Y-89085193D01*
X110347229Y-89007601D01*
X110419407Y-88908257D01*
X110518701Y-88713383D01*
X110586286Y-88505375D01*
X110608934Y-88362383D01*
X110620500Y-88289361D01*
X110620500Y-88070638D01*
X110600595Y-87944971D01*
X110586286Y-87854625D01*
X110535877Y-87699480D01*
X110518702Y-87646619D01*
X110518701Y-87646616D01*
X110474951Y-87560753D01*
X110419407Y-87451743D01*
X110380210Y-87397792D01*
X110290857Y-87274806D01*
X110136197Y-87120146D01*
X110136192Y-87120142D01*
X109984605Y-87010008D01*
X109941939Y-86954678D01*
X109935960Y-86885065D01*
X109968565Y-86823270D01*
X109984605Y-86809371D01*
X110135873Y-86699469D01*
X110290471Y-86544871D01*
X110290475Y-86544866D01*
X110418976Y-86367998D01*
X110518237Y-86173191D01*
X110518238Y-86173188D01*
X110585798Y-85965258D01*
X110597718Y-85890000D01*
X108022251Y-85890000D01*
X108053381Y-85836081D01*
X108088000Y-85706880D01*
X108088000Y-85573120D01*
X108053381Y-85443919D01*
X108022251Y-85390000D01*
X110597718Y-85390000D01*
X110585798Y-85314741D01*
X110518238Y-85106811D01*
X110518237Y-85106808D01*
X110418976Y-84912001D01*
X110290475Y-84735133D01*
X110290471Y-84735128D01*
X110135871Y-84580528D01*
X110135866Y-84580524D01*
X109984605Y-84470627D01*
X109941939Y-84415297D01*
X109935960Y-84345684D01*
X109968565Y-84283889D01*
X109984599Y-84269994D01*
X110136199Y-84159852D01*
X110290852Y-84005199D01*
X110290854Y-84005195D01*
X110290857Y-84005193D01*
X110347229Y-83927601D01*
X110419407Y-83828257D01*
X110518701Y-83633383D01*
X110586286Y-83425375D01*
X110603912Y-83314082D01*
X110620500Y-83209361D01*
X110620500Y-82990638D01*
X110600595Y-82864971D01*
X110586286Y-82774625D01*
X110518701Y-82566617D01*
X110518701Y-82566616D01*
X110484315Y-82499132D01*
X110419407Y-82371743D01*
X110411147Y-82360374D01*
X110290857Y-82194806D01*
X110136193Y-82040142D01*
X109959260Y-81911595D01*
X109959259Y-81911594D01*
X109959257Y-81911593D01*
X109885018Y-81873766D01*
X109764383Y-81812298D01*
X109764380Y-81812297D01*
X109556376Y-81744714D01*
X109340361Y-81710500D01*
X109340356Y-81710500D01*
X107343644Y-81710500D01*
X107343639Y-81710500D01*
X107127623Y-81744714D01*
X106919619Y-81812297D01*
X106919616Y-81812298D01*
X106724739Y-81911595D01*
X106547806Y-82040142D01*
X106393142Y-82194806D01*
X106264595Y-82371739D01*
X106165298Y-82566616D01*
X106165297Y-82566619D01*
X106097714Y-82774623D01*
X106063500Y-82990638D01*
X93856500Y-82990638D01*
X93836595Y-82864971D01*
X93822286Y-82774625D01*
X93754701Y-82566617D01*
X93754701Y-82566616D01*
X93720315Y-82499132D01*
X93655407Y-82371743D01*
X93647147Y-82360374D01*
X93526857Y-82194806D01*
X93372193Y-82040142D01*
X93195260Y-81911595D01*
X93195259Y-81911594D01*
X93195257Y-81911593D01*
X93121018Y-81873766D01*
X93000383Y-81812298D01*
X93000380Y-81812297D01*
X92792376Y-81744714D01*
X92576361Y-81710500D01*
X92576356Y-81710500D01*
X91851098Y-81710500D01*
X91784059Y-81690815D01*
X91763417Y-81674181D01*
X85646590Y-75557355D01*
X85646588Y-75557352D01*
X85527717Y-75438481D01*
X85527716Y-75438480D01*
X85440904Y-75388360D01*
X85440904Y-75388359D01*
X85440900Y-75388358D01*
X85390785Y-75359423D01*
X85238057Y-75318499D01*
X85079943Y-75318499D01*
X85072347Y-75318499D01*
X85072331Y-75318500D01*
X74667669Y-75318500D01*
X74660061Y-75318499D01*
X74660058Y-75318499D01*
X74563320Y-75318499D01*
X74496281Y-75298814D01*
X74450526Y-75246009D01*
X74440583Y-75176851D01*
X74440583Y-75176850D01*
X74440848Y-75175101D01*
X74450500Y-75114162D01*
X74450500Y-74893713D01*
X111649500Y-74893713D01*
X111649500Y-75106287D01*
X111682754Y-75316243D01*
X111738464Y-75487701D01*
X111748444Y-75518414D01*
X111844951Y-75707820D01*
X111969890Y-75879786D01*
X112120213Y-76030109D01*
X112292179Y-76155048D01*
X112292181Y-76155049D01*
X112292184Y-76155051D01*
X112481588Y-76251557D01*
X112683757Y-76317246D01*
X112893713Y-76350500D01*
X112893714Y-76350500D01*
X113106286Y-76350500D01*
X113106287Y-76350500D01*
X113316243Y-76317246D01*
X113518412Y-76251557D01*
X113707816Y-76155051D01*
X113774808Y-76106379D01*
X113879786Y-76030109D01*
X113879788Y-76030106D01*
X113879792Y-76030104D01*
X114030104Y-75879792D01*
X114030106Y-75879788D01*
X114030109Y-75879786D01*
X114155048Y-75707820D01*
X114155047Y-75707820D01*
X114155051Y-75707816D01*
X114251557Y-75518412D01*
X114317246Y-75316243D01*
X114350500Y-75106287D01*
X114350500Y-74893713D01*
X114317246Y-74683757D01*
X114251557Y-74481588D01*
X114155051Y-74292184D01*
X114155049Y-74292181D01*
X114155048Y-74292179D01*
X114030109Y-74120213D01*
X113879786Y-73969890D01*
X113707820Y-73844951D01*
X113518414Y-73748444D01*
X113518413Y-73748443D01*
X113518412Y-73748443D01*
X113316243Y-73682754D01*
X113316241Y-73682753D01*
X113316240Y-73682753D01*
X113145874Y-73655770D01*
X113106287Y-73649500D01*
X112893713Y-73649500D01*
X112854126Y-73655770D01*
X112683760Y-73682753D01*
X112481585Y-73748444D01*
X112292179Y-73844951D01*
X112120213Y-73969890D01*
X111969890Y-74120213D01*
X111844951Y-74292179D01*
X111748444Y-74481585D01*
X111682753Y-74683760D01*
X111656474Y-74849682D01*
X111649500Y-74893713D01*
X74450500Y-74893713D01*
X74450500Y-74885837D01*
X74414784Y-74660339D01*
X74378880Y-74549839D01*
X74344231Y-74443201D01*
X74344229Y-74443198D01*
X74344229Y-74443196D01*
X74267284Y-74292184D01*
X74240579Y-74239772D01*
X74106379Y-74055063D01*
X73944937Y-73893621D01*
X73760228Y-73759421D01*
X73556803Y-73655770D01*
X73339660Y-73585215D01*
X73114162Y-73549500D01*
X73114157Y-73549500D01*
X72885843Y-73549500D01*
X72885838Y-73549500D01*
X72660339Y-73585215D01*
X72443196Y-73655770D01*
X72239771Y-73759421D01*
X72055061Y-73893622D01*
X71893622Y-74055061D01*
X71759421Y-74239771D01*
X71655770Y-74443196D01*
X71585215Y-74660339D01*
X71549500Y-74885837D01*
X71549500Y-75114162D01*
X71585215Y-75339660D01*
X71655770Y-75556803D01*
X71732716Y-75707816D01*
X71759421Y-75760228D01*
X71893621Y-75944937D01*
X72055063Y-76106379D01*
X72122050Y-76155048D01*
X72243714Y-76243443D01*
X72242850Y-76244631D01*
X72285329Y-76291581D01*
X72296754Y-76360510D01*
X72269099Y-76424674D01*
X72211145Y-76463700D01*
X72173666Y-76469500D01*
X70475719Y-76469500D01*
X70408680Y-76449815D01*
X70365235Y-76401795D01*
X70345052Y-76362185D01*
X70345051Y-76362184D01*
X70220109Y-76190213D01*
X70069786Y-76039890D01*
X69897820Y-75914951D01*
X69708414Y-75818444D01*
X69708413Y-75818443D01*
X69708412Y-75818443D01*
X69506243Y-75752754D01*
X69506241Y-75752753D01*
X69506240Y-75752753D01*
X69344957Y-75727208D01*
X69296287Y-75719500D01*
X69083713Y-75719500D01*
X69035042Y-75727208D01*
X68873760Y-75752753D01*
X68671585Y-75818444D01*
X68482179Y-75914951D01*
X68310213Y-76039890D01*
X68159890Y-76190213D01*
X68034951Y-76362179D01*
X67938444Y-76551585D01*
X67872753Y-76753760D01*
X67839500Y-76963713D01*
X52501796Y-76963713D01*
X52502128Y-76954415D01*
X52503837Y-76906559D01*
X52518176Y-76505073D01*
X52518804Y-76496284D01*
X52571274Y-76008240D01*
X52572527Y-75999532D01*
X52659680Y-75516473D01*
X52661551Y-75507877D01*
X52782940Y-75032278D01*
X52785421Y-75023829D01*
X52828728Y-74893713D01*
X57149500Y-74893713D01*
X57149500Y-75106287D01*
X57182754Y-75316243D01*
X57238464Y-75487701D01*
X57248444Y-75518414D01*
X57344951Y-75707820D01*
X57469890Y-75879786D01*
X57620213Y-76030109D01*
X57792179Y-76155048D01*
X57792181Y-76155049D01*
X57792184Y-76155051D01*
X57981588Y-76251557D01*
X58183757Y-76317246D01*
X58393713Y-76350500D01*
X58393714Y-76350500D01*
X58606286Y-76350500D01*
X58606287Y-76350500D01*
X58816243Y-76317246D01*
X59018412Y-76251557D01*
X59207816Y-76155051D01*
X59274808Y-76106379D01*
X59379786Y-76030109D01*
X59379788Y-76030106D01*
X59379792Y-76030104D01*
X59530104Y-75879792D01*
X59530106Y-75879788D01*
X59530109Y-75879786D01*
X59655048Y-75707820D01*
X59655047Y-75707820D01*
X59655051Y-75707816D01*
X59751557Y-75518412D01*
X59817246Y-75316243D01*
X59850500Y-75106287D01*
X59850500Y-74893713D01*
X59817246Y-74683757D01*
X59751557Y-74481588D01*
X59655051Y-74292184D01*
X59655049Y-74292181D01*
X59655048Y-74292179D01*
X59530109Y-74120213D01*
X59379786Y-73969890D01*
X59207820Y-73844951D01*
X59018414Y-73748444D01*
X59018413Y-73748443D01*
X59018412Y-73748443D01*
X58816243Y-73682754D01*
X58816241Y-73682753D01*
X58816240Y-73682753D01*
X58645874Y-73655770D01*
X58606287Y-73649500D01*
X58393713Y-73649500D01*
X58354126Y-73655770D01*
X58183760Y-73682753D01*
X57981585Y-73748444D01*
X57792179Y-73844951D01*
X57620213Y-73969890D01*
X57469890Y-74120213D01*
X57344951Y-74292179D01*
X57248444Y-74481585D01*
X57182753Y-74683760D01*
X57156474Y-74849682D01*
X57149500Y-74893713D01*
X52828728Y-74893713D01*
X52940423Y-74558121D01*
X52943512Y-74549839D01*
X52987684Y-74443201D01*
X53131337Y-74096392D01*
X53135012Y-74088346D01*
X53223364Y-73911841D01*
X53354714Y-73649436D01*
X53358924Y-73641724D01*
X53609409Y-73219554D01*
X53614155Y-73212170D01*
X53894087Y-72808992D01*
X53899387Y-72801912D01*
X54054401Y-72609551D01*
X54207369Y-72419728D01*
X54213131Y-72413079D01*
X54547595Y-72053839D01*
X54553839Y-72047595D01*
X54913079Y-71713131D01*
X54919728Y-71707369D01*
X55301918Y-71399382D01*
X55308998Y-71394083D01*
X55387624Y-71339492D01*
X55712170Y-71114155D01*
X55719554Y-71109409D01*
X56141724Y-70858924D01*
X56149436Y-70854714D01*
X56535995Y-70661217D01*
X56588346Y-70635012D01*
X56596397Y-70631335D01*
X56620281Y-70621442D01*
X57049850Y-70443507D01*
X57058121Y-70440423D01*
X57523829Y-70285421D01*
X57532278Y-70282940D01*
X58007877Y-70161551D01*
X58016473Y-70159680D01*
X58499532Y-70072527D01*
X58508240Y-70071274D01*
X58996284Y-70018804D01*
X59005073Y-70018176D01*
X59497788Y-70000578D01*
X59502214Y-70000500D01*
X59565892Y-70000500D01*
X65934108Y-70000500D01*
X111434108Y-70000500D01*
X111497874Y-70000500D01*
X111502107Y-70000572D01*
G37*
%TD.AperFunction*%
%TD*%
M02*
