%TF.GenerationSoftware,KiCad,Pcbnew,9.0.6*%
%TF.CreationDate,2026-02-10T02:41:54-08:00*%
%TF.ProjectId,TECHIN514_final,54454348-494e-4353-9134-5f66696e616c,rev?*%
%TF.SameCoordinates,Original*%
%TF.FileFunction,Profile,NP*%
%FSLAX46Y46*%
G04 Gerber Fmt 4.6, Leading zero omitted, Abs format (unit mm)*
G04 Created by KiCad (PCBNEW 9.0.6) date 2026-02-10 02:41:54*
%MOMM*%
%LPD*%
G01*
G04 APERTURE LIST*
%TA.AperFunction,Profile*%
%ADD10C,0.050000*%
%TD*%
G04 APERTURE END LIST*
D10*
X111500000Y-69500000D02*
G75*
G02*
X120000000Y-78000000I0J-8500000D01*
G01*
X112000000Y-113500000D02*
G75*
G02*
X108000000Y-115156854I-4000000J4000000D01*
G01*
X66000000Y-69500000D02*
X59500000Y-69500000D01*
X52000000Y-77000000D02*
G75*
G02*
X59500000Y-69500000I7500000J0D01*
G01*
X52000000Y-98500000D02*
X52000000Y-77000000D01*
X67126080Y-114310883D02*
X54500000Y-104400226D01*
X108000000Y-115156854D02*
X69500000Y-115156854D01*
X69500000Y-115156854D02*
G75*
G02*
X67126078Y-114310883I500000J5156854D01*
G01*
X120000000Y-78000000D02*
X120000000Y-102500000D01*
X54500000Y-104400226D02*
G75*
G02*
X52000016Y-98499999I6360200J6174626D01*
G01*
X120000000Y-102500000D02*
G75*
G02*
X116682541Y-109237304I-8500000J0D01*
G01*
X66000000Y-69500000D02*
X111500000Y-69500000D01*
X116682541Y-109237304D02*
X112000000Y-113500000D01*
%TO.C,stepper_motor1*%
X64950000Y-88500000D02*
G75*
G02*
X61050000Y-88500000I-1950000J0D01*
G01*
X61050000Y-88500000D02*
G75*
G02*
X64950000Y-88500000I1950000J0D01*
G01*
X73950000Y-75000000D02*
G75*
G02*
X72050000Y-75000000I-950000J0D01*
G01*
X72050000Y-75000000D02*
G75*
G02*
X73950000Y-75000000I950000J0D01*
G01*
X73950000Y-102000000D02*
G75*
G02*
X72050000Y-102000000I-950000J0D01*
G01*
X72050000Y-102000000D02*
G75*
G02*
X73950000Y-102000000I950000J0D01*
G01*
X83300000Y-97500000D02*
G75*
G02*
X80700000Y-97500000I-1300000J0D01*
G01*
X80700000Y-97500000D02*
G75*
G02*
X83300000Y-97500000I1300000J0D01*
G01*
%TD*%
M02*
